<?xml version="1.0" encoding="UTF-8" standalone="no"?>
<!-- Created with Inkscape (http://www.inkscape.org/) -->

<svg
   xmlns:dc="http://purl.org/dc/elements/1.1/"
   xmlns:cc="http://creativecommons.org/ns#"
   xmlns:rdf="http://www.w3.org/1999/02/22-rdf-syntax-ns#"
   xmlns:svg="http://www.w3.org/2000/svg"
   xmlns="http://www.w3.org/2000/svg"
   xmlns:sodipodi="http://sodipodi.sourceforge.net/DTD/sodipodi-0.dtd"
   xmlns:inkscape="http://www.inkscape.org/namespaces/inkscape"
   width="43.929565mm"
   height="50.831615mm"
   viewBox="0 0 43.929566 50.831616"
   version="1.1"
   id="svg1443"
   inkscape:version="0.92.5 (2060ec1f9f, 2020-04-08)"
   sodipodi:docname="hexicon.svg">
  <defs
     id="defs1437">
    <inkscape:perspective
       id="perspective326"
       inkscape:persp3d-origin="150.8335 : 46.889001 : 1"
       inkscape:vp_z="301.667 : 70.333503 : 1"
       inkscape:vp_y="0 : 999.99998 : 0"
       inkscape:vp_x="0 : 70.333503 : 1"
       sodipodi:type="inkscape:persp3d" />
    <inkscape:perspective
       id="perspective326-6"
       inkscape:persp3d-origin="150.8335 : 46.889001 : 1"
       inkscape:vp_z="301.667 : 70.333503 : 1"
       inkscape:vp_y="0 : 999.99998 : 0"
       inkscape:vp_x="0 : 70.333503 : 1"
       sodipodi:type="inkscape:persp3d" />
    <inkscape:perspective
       id="perspective4362"
       inkscape:persp3d-origin="750.00002 : 588.09093 : 1"
       inkscape:vp_z="1500 : 882.13639 : 1"
       inkscape:vp_y="0 : 999.99998 : 0"
       inkscape:vp_x="0 : 882.13639 : 1"
       sodipodi:type="inkscape:persp3d" />
    <clipPath
       id="clp12">
      <path
         inkscape:connector-curvature="0"
         id="path184"
         d="m 45.315,71.927 h 12.92 v 15.867 h -12.92 z" />
    </clipPath>
    <clipPath
       id="clp21">
      <path
         inkscape:connector-curvature="0"
         id="path592"
         d="m 123.91,72.178 h 26.23 v 15.294 h -26.23 z" />
    </clipPath>
    <clipPath
       id="clp9">
      <path
         inkscape:connector-curvature="0"
         id="path100"
         d="m 413.96,49.857 h 31.76 v 8.719 h -31.76 z" />
    </clipPath>
  </defs>
  <sodipodi:namedview
     id="base"
     pagecolor="#ffffff"
     bordercolor="#666666"
     borderopacity="1.0"
     inkscape:pageopacity="0.0"
     inkscape:pageshadow="2"
     inkscape:zoom="2.8"
     inkscape:cx="76.938183"
     inkscape:cy="111.09976"
     inkscape:document-units="mm"
     inkscape:current-layer="g1376"
     showgrid="false"
     fit-margin-top="0"
     fit-margin-left="0"
     fit-margin-right="0"
     fit-margin-bottom="0"
     inkscape:window-width="1528"
     inkscape:window-height="836"
     inkscape:window-x="72"
     inkscape:window-y="27"
     inkscape:window-maximized="1"
     showguides="true"
     inkscape:guide-bbox="true" />
  <metadata
     id="metadata1440">
    <rdf:RDF>
      <cc:Work
         rdf:about="">
        <dc:format>image/svg+xml</dc:format>
        <dc:type
           rdf:resource="http://purl.org/dc/dcmitype/StillImage" />
        <dc:title></dc:title>
      </cc:Work>
    </rdf:RDF>
  </metadata>
  <g
     inkscape:label="Layer 1"
     inkscape:groupmode="layer"
     id="layer1"
     transform="translate(18.71001,-142.23694)">
    <g
       id="g2520"
       transform="matrix(0.26458333,0,0,0.26458333,-53.477244,124.96414)">
      <g
         transform="translate(-35.381858,22.433013)"
         id="Layer_2" />
      <g
         transform="translate(-35.381858,22.433013)"
         id="Layer_3" />
      <g
         transform="matrix(2,0,0,2,20.836095,-25.757014)"
         id="g2973" />
    </g>
    <path
       sodipodi:type="star"
       style="fill:#002f65;fill-opacity:1;stroke:#ffffff;stroke-width:73.99320221;stroke-miterlimit:4;stroke-dasharray:none;stroke-opacity:1"
       id="path4560"
       sodipodi:sides="6"
       sodipodi:cx="-5551.2134"
       sodipodi:cy="-204.52565"
       sodipodi:r1="1701.6108"
       sodipodi:r2="1473.6381"
       sodipodi:arg1="1.0471976"
       sodipodi:arg2="1.5707963"
       inkscape:flatsided="true"
       inkscape:rounded="0"
       inkscape:randomized="0"
       d="m -4700.408,1269.1126 -1701.6109,-10e-5 -850.8053,-1473.63823 850.8055,-1473.63817 1701.6108,10e-5 850.8054,1473.63823 z"
       inkscape:transform-center-x="1.5731476e-05"
       inkscape:transform-center-y="7.9344316e-05"
       transform="matrix(0,0.01457052,-0.0145401,0,0.28094872,248.53681)" />
    <g
       id="g1376"
       transform="translate(0,0.55892223)">
      <g
         id="g1504">
        <g
           id="g1270"
           transform="translate(0.66034792,-1.0690781)">
          <path
             inkscape:connector-curvature="0"
             id="path89-6"
             d="m 2.5715633,156.84129 c -1.81073486,0 -3.7344305,0.43503 -3.7344305,1.24122 0,0.36981 0.40544921,0.6623 1.0153028,0.86806 0.06522247,0.0249 0.24743751,0.0727 0.26290259,0.039 0.004066,-0.009 -0.22390379,-0.1103 -0.22390379,-0.1103 -0.555391,-0.25213 -0.76719312,-0.56748 -0.76719312,-0.79677 0,-0.44982 1.47319808,-0.95545 3.44732202,-0.95545 1.9727796,0 3.4479942,0.50495 3.4479942,0.95545 0,0.22929 -0.1983549,0.54329 -0.7376073,0.79275 0,0 -0.20844,0.0881 -0.2191986,0.10762 -0.020178,0.0329 0.236008,-0.0357 0.236008,-0.0357 0.6071636,-0.20641 1.0058885,-0.49621 1.0058885,-0.86536 0,-0.80484 -1.9236956,-1.24055 -3.7330848,-1.24055"
             style="fill:#ffffff;stroke-width:0.67238563" />
          <path
             inkscape:connector-curvature="0"
             id="path91-1"
             d="m 6.853987,155.44878 c -0.1694412,0.21381 -0.5258051,0.82636 -0.5648039,1.01933 -6.722e-4,0.004 -0.0047,0.0175 -0.0047,0.0175 0,0 -0.013444,-0.006 -0.017484,-0.008 -0.1499418,-0.0847 -0.3382102,-0.17953 -0.5890098,-0.27298 -0.7833291,-0.29452 -1.9048685,-0.46396 -3.079526,-0.46396 h -0.011436 c -1.1712967,0 -2.29283598,0.16944 -3.07750943,0.46396 -0.2494553,0.0942 -0.44175803,0.18827 -0.58900987,0.27298 -0.00407,0.003 -0.017484,0.008 -0.017484,0.008 0,0 -0.00407,-0.0141 -0.00407,-0.0175 -0.038996,-0.19297 -0.3960362,-0.80484 -0.5661496,-1.01933 -0.048412,-0.0612 -0.1149811,0 -0.084727,0.0551 0.2817299,0.53858 0.3657783,0.99042 0.396035,1.16323 0.015464,0.084 0.0269,0.14859 0.099517,0.18086 0.04371,0.0188 0.094803,0.0147 0.1358223,-0.0128 0.16473475,-0.10559 0.38056992,-0.23131 0.73155524,-0.36511 0.75038242,-0.2824 1.83628506,-0.44377 2.97530726,-0.44377 h 0.011436 c 1.1423843,0 2.2262691,0.16137 2.9786694,0.44377 0.3482953,0.1338 0.5668204,0.25954 0.7315551,0.36511 0.040343,0.0276 0.091449,0.0316 0.1351502,0.0128 0.072618,-0.0323 0.084041,-0.0968 0.099517,-0.18086 0.030254,-0.17348 0.1116139,-0.62533 0.3953628,-1.16323 0.030254,-0.0551 -0.034968,-0.11627 -0.084054,-0.0551"
             style="fill:#ffffff;stroke-width:0.67238563" />
          <path
             inkscape:connector-curvature="0"
             id="path93-0"
             d="m 2.8465688,156.42911 c 0,-0.13986 -0.1122873,-0.25482 -0.2534896,-0.25482 -0.1398554,0 -0.2561783,0.11435 -0.2561783,0.25482 0,0.14054 0.116328,0.25485 0.2561783,0.25485 0.141201,6.6e-4 0.2534896,-0.1136 0.2534896,-0.25485"
             style="fill:#ffffff;stroke-width:0.67238563" />
          <path
             inkscape:connector-curvature="0"
             id="path95-6"
             d="m 1.0533168,156.57435 c 0,-0.14322 -0.11498108,-0.2555 -0.25617953,-0.2555 -0.13985665,0 -0.25483396,0.11232 -0.25483396,0.2555 0,0.13919 0.11498113,0.25349 0.25483396,0.25349 0.14052882,0 0.25617953,-0.11296 0.25617953,-0.25349"
             style="fill:#ffffff;stroke-width:0.67238563" />
          <path
             inkscape:connector-curvature="0"
             id="path97-3"
             d="m -0.77960736,157.35701 c 0.12237631,-0.0699 0.16944119,-0.2239 0.0995173,-0.34628 -0.0672428,-0.12173 -0.22255945,-0.16675 -0.34493444,-0.0989 -0.1223763,0.0699 -0.1674234,0.22324 -0.098844,0.34695 0.069924,0.12376 0.22457722,0.16609 0.34426102,0.0982"
             style="fill:#ffffff;stroke-width:0.67238563" />
          <path
             inkscape:connector-curvature="0"
             id="path99-2"
             d="m 0.06221993,156.77741 c 0,-0.0719 -0.05917417,-0.13246 -0.13447671,-0.13246 -0.07194421,0 -0.13313236,0.0598 -0.13313236,0.13246 0,0.0746 0.0611818,0.13247 0.13313236,0.13247 0.07463799,0.003 0.13447671,-0.0572 0.13447671,-0.13247"
             style="fill:#ffffff;stroke-width:0.67238563" />
          <path
             inkscape:connector-curvature="0"
             id="path101-0"
             d="m 1.8231974,156.47148 c 0,-0.0713 -0.060521,-0.13112 -0.1338045,-0.13112 -0.071271,0 -0.1324602,0.0598 -0.1324602,0.13112 0,0.0746 0.061195,0.1338 0.1324602,0.1338 0.073291,6.7e-4 0.1338045,-0.0584 0.1338045,-0.1338"
             style="fill:#ffffff;stroke-width:0.67238563" />
          <path
             inkscape:connector-curvature="0"
             id="path103-6"
             d="m 4.6371321,156.57435 c 0,-0.14322 -0.1136343,-0.2555 -0.2541618,-0.2555 -0.1398566,0 -0.254834,0.11232 -0.254834,0.2555 0,0.13919 0.1149812,0.25349 0.254834,0.25349 0.1405288,0 0.2541618,-0.11296 0.2541618,-0.25349"
             style="fill:#ffffff;stroke-width:0.67238563" />
          <path
             inkscape:connector-curvature="0"
             id="path105-1"
             d="m 6.2044625,156.91188 c -0.1223763,-0.0678 -0.2763499,-0.0222 -0.3442611,0.0989 -0.06925,0.12173 -0.024206,0.27636 0.097497,0.34628 0.1230498,0.0686 0.2783677,0.0255 0.3462788,-0.0982 0.067243,-0.12376 0.024206,-0.27769 -0.099517,-0.34695"
             style="fill:#ffffff;stroke-width:0.67238563" />
          <path
             inkscape:connector-curvature="0"
             id="path107-5"
             d="m 5.3854967,156.77741 c 0,-0.0719 -0.059174,-0.13246 -0.1344767,-0.13246 -0.073291,0 -0.131788,0.0598 -0.131788,0.13246 0,0.0746 0.058501,0.13247 0.131788,0.13247 0.074638,0.003 0.1344767,-0.0572 0.1344767,-0.13247"
             style="fill:#ffffff;stroke-width:0.67238563" />
          <path
             inkscape:connector-curvature="0"
             id="path109-5"
             d="m 3.6211571,156.47148 c 0,-0.0713 -0.055807,-0.13112 -0.131788,-0.13112 -0.073291,0 -0.1317867,0.0598 -0.1317867,0.13112 0,0.0746 0.058501,0.1338 0.1317867,0.1338 0.075985,6.7e-4 0.131788,-0.0584 0.131788,-0.1338"
             style="fill:#ffffff;stroke-width:0.67238563" />
          <path
             inkscape:connector-curvature="0"
             id="path111-4"
             d="m 2.5863562,153.32404 c -0.1432188,0 -0.2595417,0.11626 -0.2595417,0.25685 0,0.14389 0.116328,0.25752 0.2595417,0.25752 0.1425453,0 0.2561783,-0.1136 0.2561783,-0.25752 6.722e-4,-0.14052 -0.1129608,-0.25685 -0.2561783,-0.25685"
             style="fill:#ffffff;stroke-width:0.67238563" />
          <path
             inkscape:connector-curvature="0"
             id="path113-7"
             d="m 2.5863562,152.60256 c -0.1432188,0 -0.2595417,0.1136 -0.2595417,0.25619 0,0.14254 0.116328,0.2582 0.2595417,0.2582 0.1425453,0 0.2561783,-0.11563 0.2561783,-0.2582 6.722e-4,-0.14323 -0.1129608,-0.25619 -0.2561783,-0.25619"
             style="fill:#ffffff;stroke-width:0.67238563" />
          <path
             inkscape:connector-curvature="0"
             id="path115-6"
             d="m 2.5863562,151.87773 c -0.1432188,0 -0.2595417,0.11436 -0.2595417,0.25887 0,0.14188 0.116328,0.25618 0.2595417,0.25618 0.1425453,0 0.2561783,-0.11436 0.2561783,-0.25618 6.722e-4,-0.14456 -0.1129608,-0.25887 -0.2561783,-0.25887"
             style="fill:#ffffff;stroke-width:0.67238563" />
          <path
             inkscape:connector-curvature="0"
             id="path117-5"
             d="m 1.3404253,152.46002 c 0.141201,0 0.2561783,-0.11436 0.2561783,-0.25685 0,-0.14188 -0.1149811,-0.25819 -0.2561783,-0.25819 -0.1438909,0 -0.2588683,0.11563 -0.2588683,0.25819 0,0.14254 0.1149812,0.25685 0.2588683,0.25685"
             style="fill:#ffffff;stroke-width:0.67238563" />
          <path
             inkscape:connector-curvature="0"
             id="path119-6"
             d="m 0.49456371,152.18232 c 0.14187317,0 0.25886828,-0.11626 0.25886828,-0.25885 0,-0.14189 -0.11700146,-0.25687 -0.25886828,-0.25687 -0.14187316,0 -0.2581961,0.11436 -0.2581961,0.25687 0,0.14254 0.11632802,0.25885 0.2581961,0.25885"
             style="fill:#ffffff;stroke-width:0.67238563" />
          <path
             inkscape:connector-curvature="0"
             id="path121-9"
             d="m -0.37886465,151.99002 c 0.14187317,0 0.2581961,-0.11563 0.2581961,-0.25752 0,-0.14322 -0.11632801,-0.25752 -0.2581961,-0.25752 -0.14187443,0 -0.25752392,0.11436 -0.25752392,0.25752 0,0.14188 0.11565457,0.25752 0.25752392,0.25752"
             style="fill:#ffffff;stroke-width:0.67238563" />
          <path
             inkscape:connector-curvature="0"
             id="path123-3"
             d="m -1.2664137,152.11375 c 0.1425453,0 0.2581961,-0.1164 0.2581961,-0.25753 0,-0.14321 -0.1149812,-0.25954 -0.2581961,-0.25954 -0.1418745,0 -0.2568518,0.11626 -0.2568518,0.25954 0,0.14187 0.1149811,0.25753 0.2568518,0.25753"
             style="fill:#ffffff;stroke-width:0.67238563" />
          <path
             inkscape:connector-curvature="0"
             id="path125-7"
             d="m -2.034279,152.59584 c 0.1425466,0 0.2581961,-0.11563 0.2581961,-0.25819 0,-0.14255 -0.1149812,-0.25887 -0.2581961,-0.25887 -0.1432175,0 -0.2568505,0.11639 -0.2568505,0.25887 0,0.14255 0.1143077,0.25819 0.2568505,0.25819"
             style="fill:#ffffff;stroke-width:0.67238563" />
          <path
             inkscape:connector-curvature="0"
             id="path127-4"
             d="m -2.4787258,153.37783 c 0.1418732,0 0.257524,-0.1136 0.257524,-0.25955 0,-0.14119 -0.1156546,-0.2555 -0.257524,-0.2555 -0.1412009,0 -0.2588682,0.1136 -0.2588682,0.2555 0,0.14591 0.1170014,0.25955 0.2588682,0.25955"
             style="fill:#ffffff;stroke-width:0.67238563" />
          <path
             inkscape:connector-curvature="0"
             id="path129-5"
             d="m -2.2138054,154.0287 c 0,-0.14255 -0.1136342,-0.25887 -0.2588682,-0.25887 -0.1405289,0 -0.2568518,0.11563 -0.2568518,0.25887 0,0.14255 0.116328,0.2582 0.2568518,0.2582 0.1452353,0 0.2588682,-0.11563 0.2588682,-0.2582"
             style="fill:#ffffff;stroke-width:0.67238563" />
          <path
             inkscape:connector-curvature="0"
             id="path131-2"
             d="m -2.1499285,154.60897 c -0.1432188,0 -0.2595417,0.11627 -0.2595417,0.25752 0,0.14187 0.116328,0.25753 0.2595417,0.25753 0.1398554,0 0.2581961,-0.11563 0.2581961,-0.25753 -6.735e-4,-0.14053 -0.1183357,-0.25752 -0.2581961,-0.25752"
             style="fill:#ffffff;stroke-width:0.67238563" />
          <path
             inkscape:connector-curvature="0"
             id="path133-5"
             d="m 5.5583,158.31785 c 0,-0.62599 -1.9539523,-0.79208 -2.9874089,-0.79208 -1.0334566,0 -2.98875454,0.16609 -2.98875454,0.79208 0,0.62733 1.95529794,0.79342 2.98875454,0.79342 1.0334566,0 2.9874089,-0.16542 2.9874089,-0.79342 m -2.9867367,0.50697 c -1.78249466,0 -2.70231827,-0.35434 -2.70231827,-0.50697 0,-0.15196 0.91982361,-0.50563 2.70231827,-0.50563 1.7831668,0 2.7029904,0.35434 2.7029904,0.50563 0,0.15195 -0.9198236,0.50697 -2.7029904,0.50697"
             style="fill:#ffffff;stroke-width:0.67238563" />
          <path
             inkscape:connector-curvature="0"
             id="path135-4"
             d="m 2.1788905,151.33512 h 0.2716434 v 0.28509 c 0,0.0787 0.064549,0.14188 0.1438909,0.14188 0.078666,0 0.1418732,-0.0633 0.1418732,-0.14188 v -0.28509 h 0.270299 c 0.080013,0 0.1425454,-0.0645 0.1425454,-0.14255 0,-0.0793 -0.063202,-0.14186 -0.1425454,-0.14186 H 2.736298 v -0.26426 c 0,-0.0787 -0.063202,-0.14254 -0.1418732,-0.14254 -0.079339,0 -0.1438909,0.0639 -0.1438909,0.14254 v 0.26426 H 2.1788905 c -0.079339,0 -0.1432188,0.0631 -0.1432188,0.14186 0,0.078 0.063876,0.14255 0.1432188,0.14255"
             style="fill:#ffffff;stroke-width:0.67238563" />
          <path
             inkscape:connector-curvature="0"
             id="path137-7"
             d="m -1.1917796,155.5577 0.00407,0.006 0.00877,0.0175 v -0.006 c 0.1250701,0.25215 0.44646451,0.4626 0.85863672,0.32946 0.20776781,-0.0686 0.42427515,-0.10889 0.55068451,-0.353 0.0665694,-0.12503 0.11430768,-0.29047 -0.0242059,-0.46798 -0.0356417,-0.0464 -0.14254661,-0.10216 -0.1902862,-0.078 -0.03631518,0.0182 -0.06522247,0.0981 -0.01748415,0.15263 0.06387558,0.0772 0.02890729,0.2165 -0.08606113,0.27701 -0.08135973,0.0437 -0.17011336,0.003 -0.18019978,-0.0302 -0.005337,-0.0155 0.15128741,-0.11563 0.0114358,-0.23332 -0.10354528,-0.0793 -0.37855335,-0.34964 -0.003304,-0.52648 0.29450492,-0.13851 0.52042651,0.25955 0.54665019,0.31468 0.0282338,0.0551 0.0618552,0.0309 0.0511055,-0.0222 -0.0585007,-0.28509 -0.29921141,-0.37518 -0.36107047,-0.69121 -0.04841177,-0.23466 0.11900909,-0.42361 0.20575002,-0.50564 0.0316011,-0.0276 0.0847269,-0.0356 0.13246019,-0.0174 0.11498113,0.045 0.3234173,0.15532 0.37182907,0.38124 0.0638756,0.314 -0.12439665,0.49018 -0.0679163,0.77593 0.0120712,0.0558 0.051779,0.0639 0.055807,0.001 0.004066,-0.0612 0.0605211,-0.51572 0.38325983,-0.5016 0.4155344,0.0182 0.2635748,0.37183 0.1996979,0.48883 -0.084054,0.16003 0.092796,0.19163 0.099517,0.19902 0.01277,0.0329 -0.053787,0.1197 -0.1546482,0.10763 -0.1284259,-0.0114 -0.21650866,-0.12709 -0.1842341,-0.22392 0.022859,-0.0672 -0.0356418,-0.13044 -0.0759849,-0.13177 -0.055807,-0.006 -0.13111457,0.0888 -0.14456314,0.14321 -0.0598476,0.2192 0.0484118,0.35165 0.15733825,0.44512 0.20978429,0.17482 0.53118509,0.15398 0.70331629,0.13515 0.5809412,-0.0619 0.61725,-0.4162 0.61725,-0.4162 -0.1196825,0.0525 -0.3872941,0.14791 -0.3872941,0.14791 -0.010801,0.003 -0.018831,0.004 -0.030928,0.004 -0.048412,0 -0.088081,-0.0404 -0.088081,-0.0901 v -0.55876 c 0,-0.0478 0.03967,-0.0868 0.088081,-0.0868 0,0 0.025553,0.001 0.035642,0.005 l 0.3967071,0.15935 -0.1122873,-0.32073 c -0.0047,-0.0114 -0.00737,-0.0249 -0.00737,-0.0363 0,-0.0498 0.038996,-0.0894 0.089428,-0.0894 h 0.3348481 0.3335025 c 0.050432,0 0.090102,0.0396 0.090102,0.0894 0,0.0114 -0.00203,0.0249 -0.00534,0.0363 l -0.1143077,0.32073 0.4000693,-0.15935 c 0.00877,-0.004 0.035642,-0.005 0.035642,-0.005 0.047738,0 0.087408,0.039 0.087408,0.0868 v 0.55876 c 0,0.0511 -0.040343,0.0901 -0.087408,0.0901 -0.01277,0 -0.022859,-0.003 -0.031601,-0.004 0,0 -0.2669369,-0.0954 -0.3899841,-0.14791 0,0 0.03967,0.35434 0.6192678,0.4162 0.1701134,0.0182 0.4948763,0.0404 0.7039872,-0.13515 0.1082594,-0.0921 0.2178529,-0.22592 0.1573382,-0.44512 -0.01479,-0.0545 -0.090775,-0.14995 -0.1432175,-0.14321 -0.042364,0.001 -0.099517,0.0652 -0.076646,0.13177 0.029581,0.0962 -0.055807,0.21248 -0.1869228,0.22392 -0.098844,0.0127 -0.1667525,-0.0746 -0.1519596,-0.10763 0.0047,-0.009 0.180872,-0.0404 0.099517,-0.19902 -0.065222,-0.11702 -0.2158364,-0.47067 0.1983536,-0.48883 0.3220729,-0.0141 0.3778799,0.44042 0.3832598,0.5016 0.0047,0.0625 0.04371,0.0545 0.055134,-0.001 0.05446,-0.28575 -0.1324589,-0.46193 -0.067243,-0.77593 0.046391,-0.22592 0.2568505,-0.33619 0.3731735,-0.38124 0.046391,-0.0175 0.099517,-0.009 0.1311158,0.0174 0.084727,0.0827 0.252144,0.27165 0.2050778,0.50564 -0.060521,0.31669 -0.3019013,0.40612 -0.3597274,0.69121 -0.01277,0.0531 0.022186,0.0766 0.047738,0.0222 0.030928,-0.0558 0.2561795,-0.45319 0.5500123,-0.31468 0.3718291,0.17684 0.099517,0.44714 -0.0047,0.52648 -0.1398554,0.11767 0.016137,0.21718 0.0094,0.23332 -0.00877,0.0329 -0.097497,0.0739 -0.1795276,0.0302 -0.1170015,-0.0605 -0.1512862,-0.19969 -0.085388,-0.27701 0.047738,-0.0538 0.018831,-0.13382 -0.018158,-0.15263 -0.047738,-0.0249 -0.1539774,0.0302 -0.1896127,0.078 -0.1391845,0.17819 -0.090775,0.34359 -0.024206,0.46798 0.1264042,0.24408 0.3408989,0.2851 0.5513554,0.353 0.4115,0.13247 0.7355908,-0.0786 0.8593089,-0.32946 v 0.006 l 0.00737,-0.0175 6.722e-4,-0.006 c 0.2723169,-0.36913 0.9077207,-1.2345 0.9077207,-2.0259 0,-0.78198 -0.6844878,-1.3683 -1.5935541,-1.3683 -0.4000692,0 -0.7759326,0.13784 -1.1396931,0.26895 -0.3973805,0.14726 -0.7752604,0.2777 -1.1652446,0.2387 v -0.80081 c 0,-0.0787 -0.062529,-0.14389 -0.1412009,-0.14389 -0.077992,0 -0.1432188,0.0652 -0.1432188,0.14389 v 2.10524 H 2.0896387 v -2.10524 c 0,-0.0787 -0.064549,-0.14389 -0.1438896,-0.14389 -0.080686,0 -0.143891,0.0652 -0.143891,0.14389 v 0.80081 c -0.386622,0.039 -0.7658475,-0.0915 -1.16322681,-0.2387 -0.36308826,-0.13178 -0.73962509,-0.26895 -1.13767656,-0.26895 -0.91108283,0 -1.59624403,0.58632 -1.59624403,1.3683 -0.00203,0.79073 0.6340595,1.65542 0.9036864,2.0259 m 5.8416867,-2.85427 c 0.3570375,-0.13179 0.6912121,-0.2555 1.0401809,-0.2555 0.7450037,0 1.3091343,0.46394 1.3091343,1.0832 0,0.20239 -0.05648,0.41756 -0.1371667,0.63137 -0.034295,-0.14389 -0.095477,-0.29316 -0.1983536,-0.42763 -0.2393689,-0.31064 -0.6273352,-0.46664 -1.1511238,-0.45924 -0.236008,-0.24811 -0.6979364,-0.42495 -1.1753298,-0.43503 -0.042363,0 -0.079339,0.008 -0.1196825,0.0102 0.1465796,-0.0444 0.2897984,-0.0975 0.4323438,-0.14726 m -1.2647569,0.26089 c 0.091449,0.006 0.1801986,0.006 0.264247,0.001 -0.09413,0.039 -0.1822163,0.0874 -0.264247,0.1459 z m 0.012071,0.52447 c 0.2676091,-0.3241 0.7012972,-0.36511 0.9352874,-0.36176 0.4794112,0.009 0.8801539,0.20239 1.0139585,0.38057 0.028234,0.0357 0.071944,0.0578 0.1190091,0.0558 0.4585674,-0.0141 0.7833291,0.10152 0.9709253,0.34627 0.2070944,0.26829 0.1990258,0.64349 0.1459075,0.81561 v 0.0135 c -0.047738,0.0766 -0.092122,0.14993 -0.1351489,0.21852 0.043037,-0.50766 -0.2817298,-0.85729 -0.6219578,-1.02875 0,0 -0.099517,-0.0464 -0.1351489,0.003 -0.069924,0.10089 0.6145601,0.57825 0.4383959,1.18205 -0.1042187,0.35031 -0.2971949,0.48211 -0.4504988,0.53118 -0.018158,-0.001 -0.032275,0.003 -0.052453,-0.004 0.074638,-0.0652 0.1156546,-0.15196 0.1156546,-0.24072 0,-0.0262 -0.00407,-0.0525 -0.00877,-0.0813 -0.00267,-0.006 -0.00737,-0.0102 -0.00737,-0.0161 0.093456,-0.0989 0.1996979,-0.24744 0.1996979,-0.42966 0,-0.0161 -6.722e-4,-0.0356 -0.00267,-0.0517 -0.014117,-0.12776 -0.086735,-0.30863 -0.3516575,-0.43302 -0.031601,-0.0155 -0.061855,-0.0229 -0.092796,-0.0329 0.0047,-0.0182 0.011436,-0.0329 0.01479,-0.0517 0.0094,-0.047 0.014117,-0.0921 0.014117,-0.13516 0,-0.32879 -0.2292824,-0.58901 -0.3819142,-0.70062 0,0 -0.1116139,-0.0827 -0.2373524,-0.047 -0.1835619,0.0504 -0.5849755,0.23803 -0.6643174,0.62599 -0.0033,0.0215 -0.0033,0.0376 -0.00673,0.0566 -0.032274,-0.001 -0.063202,-0.0102 -0.09817,-0.008 -0.2050779,0.0102 -0.3335025,0.0787 -0.4128444,0.15936 0,-0.0666 -0.071944,-0.12377 -0.1949914,-0.0982 0.074638,-0.10089 0.20306,-0.24542 0.3496397,-0.35569 0.1929749,-0.14994 0.4162065,-0.23601 0.4162065,-0.26963 -0.00267,-0.0336 -0.084053,-0.0632 -0.1801985,-0.0564 -0.1122873,0.008 -0.2420588,0.0564 -0.2897984,0.0787 -0.1707856,0.084 -0.3106422,0.19834 -0.4202409,0.31198 v -0.36779 c 0.00267,-0.004 0.00813,-0.004 0.011436,-0.008 m -1.915627,0.76449 c -0.077993,-0.0807 -0.2057501,-0.14927 -0.4121722,-0.15935 -0.035642,-0.003 -0.065896,0.006 -0.0968236,0.008 -0.004066,-0.0188 -0.004066,-0.0357 -0.008005,-0.0565 -0.0793394,-0.38797 -0.48210116,-0.57556 -0.66297312,-0.626 -0.12708026,-0.0356 -0.23667891,0.047 -0.23667891,0.047 -0.15330394,0.11156 -0.38325984,0.37183 -0.38325984,0.70062 0,0.0431 0.004701,0.0881 0.0134435,0.13516 0.003304,0.0182 0.008767,0.0337 0.0154638,0.0517 -0.0309276,0.0102 -0.0632021,0.0175 -0.0941298,0.0329 -0.26424693,0.12439 -0.33619241,0.30526 -0.35300184,0.43302 0,0.0161 -6.7218e-4,0.0349 -6.7218e-4,0.0517 0,0.18222 0.10556561,0.33014 0.19902574,0.42965 -0.001398,0.006 -0.003304,0.0102 -0.006099,0.0155 -0.008005,0.0302 -0.0120712,0.0551 -0.0120712,0.0813 0,0.0907 0.0430369,0.17616 0.1176622,0.24138 -0.0208387,0.006 -0.0349683,0.003 -0.0544601,0.004 -0.15128614,-0.0484 -0.34426104,-0.18019 -0.44713669,-0.53118 -0.17952636,-0.60312 0.50697923,-1.08119 0.43503375,-1.18205 -0.0336214,-0.049 -0.13514889,-0.003 -0.13514889,-0.003 -0.33821021,0.17146 -0.66297312,0.5211 -0.61926782,1.02876 -0.04371,-0.0693 -0.090775,-0.14188 -0.1364945,-0.21853 -6.722e-4,-0.004 0,-0.0102 -6.722e-4,-0.0135 -0.051779,-0.17279 -0.059848,-0.54732 0.1445631,-0.8156 0.1909571,-0.24474 0.51504788,-0.36107 0.97294189,-0.34628 0.045718,0.003 0.0901018,-0.0202 0.11698876,-0.0558 0.1364945,-0.17818 0.53656377,-0.37116 1.0153028,-0.38057 0.23466235,-0.004 0.66902395,0.0376 0.93663305,0.36175 0.0014,0.004 0.00877,0.004 0.0094,0.008 v 0.36779 c -0.1069125,-0.1136 -0.2467653,-0.22795 -0.4188952,-0.31199 -0.047738,-0.0222 -0.1761655,-0.0707 -0.2871098,-0.0786 -0.097497,-0.006 -0.17952631,0.0229 -0.1815441,0.0564 -0.001398,0.0337 0.2239051,0.12033 0.4162078,0.26963 0.1465796,0.11029 0.2756777,0.25483 0.3503119,0.35569 -0.1217029,-0.0255 -0.1963358,0.0316 -0.1963358,0.0982 m 0.3180386,-1.28896 v 0.14725 c -0.079339,-0.0578 -0.1674246,-0.10687 -0.2615582,-0.14591 0.084727,0.005 0.1734755,0.005 0.2615582,-0.001 m -2.3009046,-0.51574 c 0.34695101,0 0.6831447,0.12377 1.03950868,0.25552 0.14254534,0.0498 0.28509195,0.10216 0.43167161,0.14792 -0.0403431,-0.003 -0.0793394,-0.0102 -0.12102942,-0.0102 -0.47806686,0.0102 -0.93797866,0.18693 -1.1739854,0.43503 -0.52647862,-0.008 -0.91175497,0.14859 -1.15045167,0.45924 -0.1035453,0.13447 -0.1647347,0.28308 -0.199027,0.42764 -0.080686,-0.2145 -0.1371667,-0.42966 -0.1371667,-0.63137 0,-0.61994 0.5621153,-1.08389 1.3104799,-1.08389"
             style="fill:#ffffff;stroke-width:0.67238563" />
          <path
             inkscape:connector-curvature="0"
             id="path139-4"
             d="m 3.8484231,152.46002 c 0.1418744,0 0.2548352,-0.11436 0.2548352,-0.25685 0,-0.14188 -0.1129608,-0.25819 -0.2548352,-0.25819 -0.1445619,0 -0.2575227,0.11563 -0.2575227,0.25819 0,0.14254 0.1136342,0.25685 0.2575227,0.25685"
             style="fill:#ffffff;stroke-width:0.67238563" />
          <path
             inkscape:connector-curvature="0"
             id="path141-4"
             d="m 4.6929403,152.18232 c 0.1405288,0 0.2575239,-0.11626 0.2575239,-0.25885 0,-0.14189 -0.1170014,-0.25687 -0.2575239,-0.25687 -0.1425466,0 -0.2581961,0.11436 -0.2581961,0.25687 6.722e-4,0.14254 0.1156546,0.25885 0.2581961,0.25885"
             style="fill:#ffffff;stroke-width:0.67238563" />
          <path
             inkscape:connector-curvature="0"
             id="path143-3"
             d="m 5.5683865,151.99002 c 0.1398553,0 0.2555061,-0.11563 0.2555061,-0.25752 0,-0.14322 -0.1156546,-0.25752 -0.2555061,-0.25752 -0.1459075,0 -0.2588683,0.11436 -0.2588683,0.25752 0,0.14188 0.1129608,0.25752 0.2588683,0.25752"
             style="fill:#ffffff;stroke-width:0.67238563" />
          <path
             inkscape:connector-curvature="0"
             id="path145-0"
             d="m 6.4532456,152.11375 c 0.1418732,0 0.2568517,-0.1164 0.2568517,-0.25753 0,-0.14321 -0.1149811,-0.25954 -0.2568517,-0.25954 -0.1445631,0 -0.2575239,0.11626 -0.2575239,0.25954 0,0.14187 0.1136342,0.25753 0.2575239,0.25753"
             style="fill:#ffffff;stroke-width:0.67238563" />
          <path
             inkscape:connector-curvature="0"
             id="path147-7"
             d="m 7.2197653,152.59584 c 0.1452353,0 0.2588682,-0.11563 0.2588682,-0.25819 0,-0.14255 -0.1129608,-0.25887 -0.2588682,-0.25887 -0.1405289,0 -0.2561783,0.11639 -0.2561783,0.25887 0,0.14255 0.1156545,0.25819 0.2561783,0.25819"
             style="fill:#ffffff;stroke-width:0.67238563" />
          <path
             inkscape:connector-curvature="0"
             id="path149-8"
             d="m 7.6675741,153.37783 c 0.1405288,0 0.2588683,-0.1136 0.2588683,-0.25955 0,-0.14119 -0.1183356,-0.2555 -0.2588683,-0.2555 -0.1438909,0 -0.2602126,0.1136 -0.2602126,0.2555 0,0.14591 0.116328,0.25955 0.2602126,0.25955"
             style="fill:#ffffff;stroke-width:0.67238563" />
          <path
             inkscape:connector-curvature="0"
             id="path151-6"
             d="m 7.657489,153.76983 c -0.1425466,0 -0.257524,0.11563 -0.257524,0.25887 0,0.14255 0.1149812,0.2582 0.257524,0.2582 0.1418731,0 0.2581961,-0.11563 0.2581961,-0.2582 6.722e-4,-0.14255 -0.116328,-0.25887 -0.2581961,-0.25887"
             style="fill:#ffffff;stroke-width:0.67238563" />
          <path
             inkscape:connector-curvature="0"
             id="path153-8"
             d="m 7.3387782,154.60897 c -0.1432188,0 -0.2588696,0.11627 -0.2588696,0.25752 0,0.14187 0.1156546,0.25753 0.2588696,0.25753 0.1405275,0 0.2588682,-0.11563 0.2588682,-0.25753 0,-0.14053 -0.1183356,-0.25752 -0.2588682,-0.25752"
             style="fill:#ffffff;stroke-width:0.67238563" />
          <polygon
             transform="matrix(0.67238567,0,0,0.67238567,-13.186467,129.32122)"
             id="polygon155-8"
             points="23.464,37.092 23.47,37.092 23.468,37.092 "
             style="fill:#ffffff" />
          <path
             inkscape:connector-curvature="0"
             id="path251-7"
             d="m 2.5715633,156.84129 c -1.81073486,0 -3.7344305,0.43503 -3.7344305,1.24122 0,0.36914 0.40544921,0.6623 1.0153028,0.86806 0.06522247,0.0249 0.24743751,0.0733 0.26290259,0.039 0.004066,-0.009 -0.22390379,-0.1103 -0.22390379,-0.1103 -0.555391,-0.25213 -0.76719312,-0.56816 -0.76719312,-0.79677 0,-0.44982 1.47319808,-0.95545 3.44732202,-0.95545 1.9727796,0 3.4479942,0.50495 3.4479942,0.95545 0,0.22861 -0.1983549,0.54262 -0.7376073,0.79275 0,0 -0.20844,0.0881 -0.2191986,0.10762 -0.020178,0.0329 0.236008,-0.0357 0.236008,-0.0357 0.6071636,-0.20641 1.0058885,-0.49688 1.0058885,-0.86536 0,-0.80552 -1.9236956,-1.24055 -3.7330848,-1.24055"
             style="fill:#ffffff;stroke-width:0.67238563" />
          <path
             inkscape:connector-curvature="0"
             id="path253-7"
             d="m 6.853987,155.44878 c -0.1694412,0.21449 -0.5258051,0.82636 -0.5648039,1.01933 -6.722e-4,0.004 -0.0047,0.0175 -0.0047,0.0175 0,0 -0.013444,-0.006 -0.017484,-0.008 -0.1499418,-0.0847 -0.3382102,-0.17953 -0.5890098,-0.27298 -0.7833291,-0.29452 -1.9048685,-0.46462 -3.079526,-0.46462 h -0.011436 c -1.1712967,0 -2.29283598,0.16944 -3.07750943,0.46462 -0.2494553,0.0942 -0.44175803,0.18827 -0.58900987,0.27298 -0.00407,0.003 -0.017484,0.008 -0.017484,0.008 0,0 -0.00407,-0.0141 -0.00407,-0.0175 -0.038996,-0.19297 -0.3960362,-0.80484 -0.5661496,-1.01933 -0.048412,-0.0612 -0.1149811,0 -0.084727,0.0551 0.2817299,0.5379 0.3657783,0.98975 0.396035,1.1639 0.015464,0.084 0.0269,0.14792 0.099517,0.18019 0.04371,0.0188 0.094803,0.0155 0.1358223,-0.0127 0.16473475,-0.10623 0.38056992,-0.23199 0.73155524,-0.36579 0.75038242,-0.28172 1.83628506,-0.4431 2.97530726,-0.4431 h 0.011436 c 1.1423843,0 2.2262691,0.16138 2.9786694,0.4431 0.3482953,0.1338 0.5668204,0.25955 0.7315551,0.36579 0.040343,0.0276 0.091449,0.0309 0.1351502,0.0127 0.072618,-0.0323 0.084041,-0.0962 0.099517,-0.18019 0.030254,-0.17415 0.1116139,-0.626 0.3953628,-1.1639 0.030254,-0.0551 -0.034968,-0.11627 -0.084054,-0.0551"
             style="fill:#ffffff;stroke-width:0.67238563" />
          <path
             inkscape:connector-curvature="0"
             id="path255-6"
             d="m 2.8465688,156.42911 c 0,-0.13986 -0.1122873,-0.25482 -0.2534896,-0.25482 -0.1398554,0 -0.2561783,0.11435 -0.2561783,0.25482 0,0.14054 0.116328,0.25485 0.2561783,0.25485 0.141201,6.6e-4 0.2534896,-0.1136 0.2534896,-0.25485"
             style="fill:#ffffff;stroke-width:0.67238563" />
          <path
             inkscape:connector-curvature="0"
             id="path257-7"
             d="m 1.0533168,156.57368 c 0,-0.14255 -0.11498108,-0.25483 -0.25617953,-0.25483 -0.13985665,0 -0.25483396,0.11232 -0.25483396,0.25483 0,0.13986 0.11498113,0.25349 0.25483396,0.25349 0.14052882,0 0.25617953,-0.11296 0.25617953,-0.25349"
             style="fill:#ffffff;stroke-width:0.67238563" />
          <path
             inkscape:connector-curvature="0"
             id="path259-3"
             d="m -0.77960736,157.35701 c 0.12237631,-0.0693 0.16944119,-0.2239 0.0995173,-0.34628 -0.0672428,-0.12173 -0.22255945,-0.16675 -0.34493444,-0.0995 -0.1223763,0.0699 -0.1674234,0.22324 -0.098844,0.34762 0.069924,0.12376 0.22457722,0.16676 0.34426102,0.0982"
             style="fill:#ffffff;stroke-width:0.67238563" />
          <path
             inkscape:connector-curvature="0"
             id="path261-6"
             d="m 0.06221993,156.77809 c 0,-0.0727 -0.05917417,-0.13314 -0.13447671,-0.13314 -0.07194421,0 -0.13313236,0.0598 -0.13313236,0.13314 0,0.0746 0.0611818,0.13245 0.13313236,0.13245 0.07463799,6.7e-4 0.13447671,-0.0578 0.13447671,-0.13245"
             style="fill:#ffffff;stroke-width:0.67238563" />
          <path
             inkscape:connector-curvature="0"
             id="path263-5"
             d="m 1.8231974,156.47215 c 0,-0.0719 -0.060521,-0.13179 -0.1338045,-0.13179 -0.071271,0 -0.1324602,0.0598 -0.1324602,0.13179 0,0.0739 0.061195,0.1338 0.1324602,0.1338 0.073291,0 0.1338045,-0.0599 0.1338045,-0.1338"
             style="fill:#ffffff;stroke-width:0.67238563" />
          <path
             inkscape:connector-curvature="0"
             id="path265-6"
             d="m 4.6371321,156.57368 c 0,-0.14255 -0.1136343,-0.25483 -0.2541618,-0.25483 -0.1398566,0 -0.254834,0.11232 -0.254834,0.25483 0,0.13986 0.1149812,0.25349 0.254834,0.25349 0.1405288,0 0.2541618,-0.11296 0.2541618,-0.25349"
             style="fill:#ffffff;stroke-width:0.67238563" />
          <path
             inkscape:connector-curvature="0"
             id="path267-3"
             d="m 6.2044625,156.91121 c -0.1223763,-0.0672 -0.2763499,-0.0222 -0.3442611,0.0995 -0.06925,0.12173 -0.024206,0.27703 0.097497,0.34628 0.1230498,0.0686 0.2783677,0.0255 0.3462788,-0.0982 0.067243,-0.1244 0.024206,-0.27769 -0.099517,-0.34762"
             style="fill:#ffffff;stroke-width:0.67238563" />
          <path
             inkscape:connector-curvature="0"
             id="path269-9"
             d="m 5.3854967,156.77809 c 0,-0.0727 -0.059174,-0.13314 -0.1344767,-0.13314 -0.073291,0 -0.131788,0.0598 -0.131788,0.13314 0,0.0746 0.058501,0.13245 0.131788,0.13245 0.074638,6.7e-4 0.1344767,-0.0578 0.1344767,-0.13245"
             style="fill:#ffffff;stroke-width:0.67238563" />
          <path
             inkscape:connector-curvature="0"
             id="path271-4"
             d="m 3.6211571,156.47215 c 0,-0.0719 -0.055807,-0.13179 -0.131788,-0.13179 -0.073291,0 -0.1317867,0.0598 -0.1317867,0.13179 0,0.0739 0.058501,0.1338 0.1317867,0.1338 0.075985,0 0.131788,-0.0599 0.131788,-0.1338"
             style="fill:#ffffff;stroke-width:0.67238563" />
          <path
             inkscape:connector-curvature="0"
             id="path273-8"
             d="m 2.5863562,153.32404 c -0.1432188,0 -0.2595417,0.11626 -0.2595417,0.25685 0,0.14389 0.116328,0.25752 0.2595417,0.25752 0.1425453,0 0.2561783,-0.1136 0.2561783,-0.25752 6.722e-4,-0.14052 -0.1129608,-0.25685 -0.2561783,-0.25685"
             style="fill:#ffffff;stroke-width:0.67238563" />
          <path
             inkscape:connector-curvature="0"
             id="path275-1"
             d="m 2.5863562,152.60256 c -0.1432188,0 -0.2595417,0.1136 -0.2595417,0.25619 0,0.14254 0.116328,0.2582 0.2595417,0.2582 0.1425453,0 0.2561783,-0.11563 0.2561783,-0.2582 6.722e-4,-0.14323 -0.1129608,-0.25619 -0.2561783,-0.25619"
             style="fill:#ffffff;stroke-width:0.67238563" />
          <path
             inkscape:connector-curvature="0"
             id="path277-2"
             d="m 2.5863562,151.87773 c -0.1432188,0 -0.2595417,0.11436 -0.2595417,0.25887 0,0.14188 0.116328,0.25618 0.2595417,0.25618 0.1425453,0 0.2561783,-0.11436 0.2561783,-0.25618 6.722e-4,-0.14456 -0.1129608,-0.25887 -0.2561783,-0.25887"
             style="fill:#ffffff;stroke-width:0.67238563" />
          <path
             inkscape:connector-curvature="0"
             id="path279-9"
             d="m 1.3404253,152.46002 c 0.141201,0 0.2561783,-0.11436 0.2561783,-0.25685 0,-0.14188 -0.1149811,-0.25819 -0.2561783,-0.25819 -0.1438909,0 -0.2588683,0.11563 -0.2588683,0.25819 0,0.14254 0.1149812,0.25685 0.2588683,0.25685"
             style="fill:#ffffff;stroke-width:0.67238563" />
          <path
             inkscape:connector-curvature="0"
             id="path281-3"
             d="m 0.49456371,152.18232 c 0.14187317,0 0.25886828,-0.11626 0.25886828,-0.25885 0,-0.14189 -0.11700146,-0.25687 -0.25886828,-0.25687 -0.14187316,0 -0.2581961,0.11436 -0.2581961,0.25687 0,0.14254 0.11632802,0.25885 0.2581961,0.25885"
             style="fill:#ffffff;stroke-width:0.67238563" />
          <path
             inkscape:connector-curvature="0"
             id="path283-9"
             d="m -0.37886465,151.99002 c 0.14187317,0 0.2581961,-0.11563 0.2581961,-0.25752 0,-0.14322 -0.11632801,-0.25752 -0.2581961,-0.25752 -0.14187443,0 -0.25752392,0.11436 -0.25752392,0.25752 0,0.14188 0.11565457,0.25752 0.25752392,0.25752"
             style="fill:#ffffff;stroke-width:0.67238563" />
          <path
             inkscape:connector-curvature="0"
             id="path285-0"
             d="m -1.2664137,152.11375 c 0.1425453,0 0.2581961,-0.1164 0.2581961,-0.25753 0,-0.14321 -0.1149812,-0.25954 -0.2581961,-0.25954 -0.1418745,0 -0.2568518,0.11626 -0.2568518,0.25954 0,0.14187 0.1149811,0.25753 0.2568518,0.25753"
             style="fill:#ffffff;stroke-width:0.67238563" />
          <path
             inkscape:connector-curvature="0"
             id="path287-8"
             d="m -2.034279,152.59584 c 0.1425466,0 0.2581961,-0.11563 0.2581961,-0.25819 0,-0.14255 -0.1149812,-0.25887 -0.2581961,-0.25887 -0.1432175,0 -0.2568505,0.11639 -0.2568505,0.25887 0,0.14255 0.1143077,0.25819 0.2568505,0.25819"
             style="fill:#ffffff;stroke-width:0.67238563" />
          <path
             inkscape:connector-curvature="0"
             id="path289-8"
             d="m -2.4787258,153.37783 c 0.1418732,0 0.257524,-0.1136 0.257524,-0.25955 0,-0.14119 -0.1156546,-0.2555 -0.257524,-0.2555 -0.1412009,0 -0.2588682,0.1136 -0.2588682,0.2555 0,0.14591 0.1170014,0.25955 0.2588682,0.25955"
             style="fill:#ffffff;stroke-width:0.67238563" />
          <path
             inkscape:connector-curvature="0"
             id="path291-5"
             d="m -2.2138054,154.0287 c 0,-0.14255 -0.1136342,-0.25887 -0.2588682,-0.25887 -0.1405289,0 -0.2568518,0.11563 -0.2568518,0.25887 0,0.14255 0.116328,0.2582 0.2568518,0.2582 0.1452353,0 0.2588682,-0.11563 0.2588682,-0.2582"
             style="fill:#ffffff;stroke-width:0.67238563" />
          <path
             inkscape:connector-curvature="0"
             id="path293-0"
             d="m -2.1499285,154.60897 c -0.1432188,0 -0.2595417,0.11627 -0.2595417,0.25752 0,0.14255 0.116328,0.2582 0.2595417,0.2582 0.1398554,0 0.2581961,-0.11563 0.2581961,-0.2582 -6.735e-4,-0.14053 -0.1183357,-0.25752 -0.2581961,-0.25752"
             style="fill:#ffffff;stroke-width:0.67238563" />
          <path
             inkscape:connector-curvature="0"
             id="path295-9"
             d="m 5.5583,158.31852 c 0,-0.62599 -1.9539523,-0.79275 -2.9874089,-0.79275 -1.0334566,0 -2.98875454,0.16676 -2.98875454,0.79275 0,0.62666 1.95529794,0.79275 2.98875454,0.79275 1.0334566,0 2.9874089,-0.16542 2.9874089,-0.79275 m -2.9867367,0.50698 c -1.78249466,0 -2.70231827,-0.35502 -2.70231827,-0.50698 0,-0.15196 0.91982361,-0.50563 2.70231827,-0.50563 1.7831668,0 2.7029904,0.35435 2.7029904,0.50563 0,0.15128 -0.9198236,0.50698 -2.7029904,0.50698"
             style="fill:#ffffff;stroke-width:0.67238563" />
          <path
             inkscape:connector-curvature="0"
             id="path297-6"
             d="m 2.1788905,151.33512 h 0.2716434 v 0.28509 c 0,0.0787 0.064549,0.14188 0.1438909,0.14188 0.078666,0 0.1418732,-0.0633 0.1418732,-0.14188 v -0.28509 h 0.270299 c 0.080013,0 0.1425454,-0.0645 0.1425454,-0.14255 0,-0.0793 -0.063202,-0.14186 -0.1425454,-0.14186 H 2.736298 v -0.26426 c 0,-0.0787 -0.063202,-0.14254 -0.1418732,-0.14254 -0.079339,0 -0.1438909,0.0639 -0.1438909,0.14254 v 0.26426 H 2.1788905 c -0.079339,0 -0.1432188,0.0631 -0.1432188,0.14186 0,0.078 0.063876,0.14255 0.1432188,0.14255"
             style="fill:#ffffff;stroke-width:0.67238563" />
          <path
             inkscape:connector-curvature="0"
             id="path299-3"
             d="m -1.1917796,155.5577 0.00407,0.006 0.00877,0.0175 v -0.006 c 0.1250701,0.25215 0.44646451,0.4626 0.85863672,0.33014 0.20776781,-0.0686 0.42427515,-0.10966 0.55068451,-0.35368 0.0665694,-0.12439 0.11430768,-0.28979 -0.0242059,-0.46798 -0.0356417,-0.047 -0.14254661,-0.10216 -0.1902862,-0.0787 -0.03631518,0.0188 -0.06522247,0.0989 -0.01748415,0.15331 0.06387558,0.0766 0.02890729,0.21583 -0.08606113,0.27701 -0.08135973,0.0437 -0.17011336,0.003 -0.18019978,-0.0309 -0.005337,-0.0155 0.15128741,-0.11563 0.0114358,-0.23264 -0.10354528,-0.08 -0.37855335,-0.34965 -0.003304,-0.52648 0.29450492,-0.13852 0.52042651,0.25954 0.54665019,0.31467 0.0282338,0.0545 0.0618552,0.0316 0.0511055,-0.0222 -0.0585007,-0.2851 -0.29921141,-0.37519 -0.36107047,-0.69121 -0.04841177,-0.23466 0.11900909,-0.42361 0.20575002,-0.50564 0.0316011,-0.0276 0.0847269,-0.0356 0.13246019,-0.0174 0.11498113,0.045 0.3234173,0.15531 0.37182907,0.38123 0.0638756,0.31401 -0.12439665,0.49018 -0.0679163,0.77594 0.0120712,0.0558 0.051779,0.0639 0.055807,0.001 0.004066,-0.0613 0.0605211,-0.51572 0.38325983,-0.5016 0.4155344,0.0182 0.2635748,0.37183 0.1996979,0.48883 -0.084054,0.16002 0.092796,0.19163 0.099517,0.19969 0.01277,0.0329 -0.053787,0.11906 -0.1546482,0.10687 -0.1284259,-0.0102 -0.21650866,-0.12709 -0.1842341,-0.22324 0.022859,-0.0672 -0.0356418,-0.13045 -0.0759849,-0.13178 -0.055807,-0.006 -0.13111457,0.0888 -0.14456314,0.14321 -0.0598476,0.21853 0.0484118,0.35165 0.15733825,0.44512 0.20978429,0.17415 0.53118509,0.15331 0.70331629,0.13515 0.5809412,-0.0619 0.61725,-0.41688 0.61725,-0.41688 -0.1196825,0.0531 -0.3872941,0.14792 -0.3872941,0.14792 -0.010801,0.003 -0.018831,0.004 -0.030928,0.004 -0.048412,0 -0.088081,-0.0396 -0.088081,-0.0901 v -0.55875 c 0,-0.0478 0.03967,-0.0868 0.088081,-0.0868 0,0 0.025553,0.001 0.035642,0.005 l 0.3967071,0.15936 -0.1122873,-0.32073 c -0.0047,-0.0114 -0.00737,-0.0249 -0.00737,-0.0363 0,-0.0498 0.038996,-0.0894 0.089428,-0.0894 h 0.3348481 0.3335025 c 0.050432,0 0.090102,0.0396 0.090102,0.0894 0,0.0114 -0.00203,0.0249 -0.00534,0.0363 l -0.1143077,0.32073 0.4000693,-0.15936 c 0.00877,-0.004 0.035642,-0.005 0.035642,-0.005 0.047738,0 0.087408,0.039 0.087408,0.0868 v 0.55875 c 0,0.0511 -0.040343,0.0901 -0.087408,0.0901 -0.01277,0 -0.022859,-0.003 -0.031601,-0.004 0,0 -0.2669369,-0.0948 -0.3899841,-0.14792 0,0 0.03967,0.35435 0.6192678,0.41688 0.1701134,0.0182 0.4948763,0.0396 0.7039872,-0.13515 0.1082594,-0.0927 0.2178529,-0.22659 0.1573382,-0.44512 -0.01479,-0.0545 -0.090775,-0.14995 -0.1432175,-0.14321 -0.042364,0.001 -0.099517,0.0652 -0.076646,0.13178 0.029581,0.0962 -0.055807,0.21247 -0.1869228,0.22324 -0.098844,0.0127 -0.1667525,-0.074 -0.1519596,-0.10687 0.0047,-0.009 0.180872,-0.0404 0.099517,-0.19969 -0.065222,-0.11703 -0.2158364,-0.47068 0.1983536,-0.48883 0.3220729,-0.0141 0.3778799,0.44042 0.3832598,0.5016 0.0047,0.0625 0.04371,0.0545 0.055134,-0.001 0.05446,-0.28576 -0.1324589,-0.46193 -0.067243,-0.77594 0.046391,-0.22592 0.2568505,-0.33619 0.3731735,-0.38123 0.046391,-0.0175 0.099517,-0.009 0.1311158,0.0174 0.084727,0.0827 0.252144,0.27165 0.2050778,0.50564 -0.060521,0.31668 -0.3019013,0.40611 -0.3597274,0.69121 -0.01277,0.0538 0.022186,0.0766 0.047738,0.0222 0.030928,-0.0558 0.2561795,-0.45319 0.5500123,-0.31467 0.3718291,0.17683 0.099517,0.44647 -0.0047,0.52648 -0.1398554,0.11703 0.016137,0.21718 0.0094,0.23264 -0.00877,0.0337 -0.097497,0.0746 -0.1795276,0.0309 -0.1170015,-0.0605 -0.1512862,-0.1997 -0.085388,-0.27701 0.047738,-0.0538 0.018831,-0.13449 -0.018158,-0.15331 -0.047738,-0.0241 -0.1539774,0.0309 -0.1896127,0.0787 -0.1391845,0.17819 -0.090775,0.34359 -0.024206,0.46798 0.1264042,0.24408 0.3408989,0.2851 0.5513554,0.35368 0.4115,0.13246 0.7355908,-0.0787 0.8593089,-0.33014 v 0.006 l 0.00737,-0.0175 6.722e-4,-0.006 c 0.2723169,-0.36913 0.9077207,-1.2345 0.9077207,-2.0259 0,-0.78198 -0.6844878,-1.3683 -1.5935541,-1.3683 -0.4000692,0 -0.7759326,0.13784 -1.1396931,0.26895 -0.3973805,0.14726 -0.7752604,0.2777 -1.1652446,0.2387 v -0.80081 c 0,-0.0787 -0.062529,-0.14389 -0.1412009,-0.14389 -0.077992,0 -0.1432188,0.0652 -0.1432188,0.14389 v 2.10524 H 2.0896387 v -2.10524 c 0,-0.0787 -0.064549,-0.14389 -0.1438896,-0.14389 -0.080686,0 -0.143891,0.0652 -0.143891,0.14389 v 0.80081 c -0.386622,0.039 -0.7658475,-0.0915 -1.16322681,-0.2387 -0.36308826,-0.13178 -0.73962509,-0.26895 -1.13767656,-0.26895 -0.91108283,0 -1.59624403,0.58632 -1.59624403,1.3683 -0.00203,0.79073 0.6340595,1.65609 0.9036864,2.0259 m 5.8416867,-2.85427 c 0.3570375,-0.13179 0.6912121,-0.2555 1.0401809,-0.2555 0.7450037,0 1.3091343,0.46394 1.3091343,1.0832 0,0.20239 -0.05648,0.41756 -0.1371667,0.63137 -0.034295,-0.14389 -0.095477,-0.29316 -0.1983536,-0.42763 -0.2393689,-0.31064 -0.6273352,-0.46664 -1.1511238,-0.45924 -0.236008,-0.24811 -0.6979364,-0.42495 -1.1753298,-0.43503 -0.042363,0 -0.079339,0.008 -0.1196825,0.0102 0.1465796,-0.0444 0.2897984,-0.0975 0.4323438,-0.14726 m -1.2647569,0.26089 c 0.091449,0.006 0.1801986,0.006 0.264247,0.001 -0.09413,0.039 -0.1822163,0.0874 -0.264247,0.1459 z m 0.012071,0.52447 c 0.2676091,-0.3241 0.7012972,-0.36511 0.9352874,-0.36176 0.4794112,0.009 0.8801539,0.20239 1.0139585,0.38057 0.028234,0.0357 0.071944,0.0578 0.1190091,0.0558 0.4585674,-0.0141 0.7833291,0.10152 0.9709253,0.34627 0.2070944,0.26829 0.1990258,0.64349 0.1459075,0.81561 v 0.0135 c -0.047738,0.0766 -0.092122,0.14993 -0.1351489,0.21852 0.043037,-0.50766 -0.2817298,-0.85729 -0.6219578,-1.02875 0,0 -0.099517,-0.0464 -0.1351489,0.003 -0.069924,0.10089 0.6145601,0.57825 0.4383959,1.18205 -0.1042187,0.35099 -0.2971949,0.48143 -0.4504988,0.53118 -0.018158,-0.001 -0.032275,0.003 -0.052453,-0.004 0.074638,-0.0652 0.1156546,-0.15196 0.1156546,-0.24139 0,-0.0262 -0.00407,-0.0518 -0.00877,-0.0813 -0.00267,-0.005 -0.00737,-0.009 -0.00737,-0.0161 0.093456,-0.0995 0.1996979,-0.24743 0.1996979,-0.42966 0,-0.0161 -6.722e-4,-0.0356 -0.00267,-0.0517 -0.014117,-0.12777 -0.086735,-0.30863 -0.3516575,-0.43303 -0.031601,-0.0155 -0.061855,-0.0229 -0.092796,-0.0329 0.0047,-0.0182 0.011436,-0.0329 0.01479,-0.0517 0.0094,-0.047 0.014117,-0.0921 0.014117,-0.13515 0,-0.3288 -0.2292824,-0.58901 -0.3819142,-0.70063 0,0 -0.1116139,-0.0827 -0.2373524,-0.047 -0.1835619,0.0504 -0.5849755,0.23803 -0.6643174,0.626 -0.0033,0.0215 -0.0033,0.0376 -0.00673,0.0565 -0.032274,-0.001 -0.063202,-0.0102 -0.09817,-0.008 -0.2050779,0.0102 -0.3335025,0.0787 -0.4128444,0.15935 0,-0.0666 -0.071944,-0.12376 -0.1949914,-0.0982 0.074638,-0.10089 0.20306,-0.24542 0.3496397,-0.35569 0.1929749,-0.14994 0.4162065,-0.23601 0.4162065,-0.26962 -0.00267,-0.0337 -0.084053,-0.0632 -0.1801985,-0.0565 -0.1122873,0.008 -0.2420588,0.0565 -0.2897984,0.0787 -0.1707856,0.084 -0.3106422,0.19835 -0.4202409,0.31198 v -0.36779 c 0.00267,-0.003 0.00813,-0.003 0.011436,-0.006 m -1.915627,0.7645 c -0.077993,-0.0807 -0.2057501,-0.14928 -0.4121722,-0.15935 -0.035642,-0.003 -0.065896,0.006 -0.0968236,0.008 -0.004066,-0.0188 -0.004066,-0.0357 -0.008005,-0.0565 -0.0793394,-0.38797 -0.48210116,-0.57557 -0.66297312,-0.626 -0.12708026,-0.0356 -0.23667891,0.047 -0.23667891,0.047 -0.15330394,0.11156 -0.38325984,0.37183 -0.38325984,0.70062 0,0.0431 0.004701,0.0881 0.0134435,0.13516 0.003304,0.0182 0.008767,0.0337 0.0154638,0.0517 -0.0309276,0.0102 -0.0632021,0.0175 -0.0941298,0.0329 -0.26424693,0.1244 -0.33619241,0.30526 -0.35300184,0.43302 0,0.0161 -6.7218e-4,0.0349 -6.7218e-4,0.0517 0,0.18222 0.10556561,0.33014 0.19902574,0.42966 -0.001398,0.006 -0.003304,0.0102 -0.006099,0.0161 -0.008005,0.0296 -0.0120712,0.0551 -0.0120712,0.0813 0,0.0901 0.0430369,0.17616 0.1176622,0.24138 -0.0208387,0.006 -0.0349683,0.003 -0.0544601,0.004 -0.15128614,-0.049 -0.34426104,-0.17951 -0.44713669,-0.53118 -0.17952636,-0.60313 0.50697923,-1.0812 0.43503375,-1.18205 -0.0336214,-0.049 -0.13514889,-0.003 -0.13514889,-0.003 -0.33821021,0.17146 -0.66297312,0.52109 -0.61926782,1.02875 -0.04371,-0.0693 -0.090775,-0.14187 -0.1364945,-0.21852 -6.722e-4,-0.004 0,-0.0102 -6.722e-4,-0.0135 -0.051779,-0.17279 -0.059848,-0.54732 0.1445631,-0.8156 0.1909571,-0.24474 0.51504788,-0.36107 0.97294189,-0.34628 0.045718,0.003 0.0901018,-0.0202 0.11698876,-0.0558 0.1364945,-0.17818 0.53656377,-0.37116 1.0153028,-0.38057 0.23466235,-0.004 0.66902395,0.0376 0.93663305,0.36174 0.0014,0.004 0.00877,0.004 0.0094,0.008 v 0.36779 c -0.1069125,-0.1136 -0.2467653,-0.22794 -0.4188952,-0.31198 -0.047738,-0.0222 -0.1761655,-0.0707 -0.2871098,-0.0787 -0.097497,-0.006 -0.17952631,0.0229 -0.1815441,0.0564 -0.001398,0.0337 0.2239051,0.12033 0.4162078,0.26963 0.1465796,0.1103 0.2756777,0.25483 0.3503119,0.3557 -0.1217029,-0.0262 -0.1963358,0.0309 -0.1963358,0.0975 m 0.3180386,-1.28896 v 0.14724 c -0.079339,-0.0578 -0.1674246,-0.10686 -0.2615582,-0.14591 0.084727,0.005 0.1734755,0.005 0.2615582,-0.001 m -2.3009046,-0.51573 c 0.34695101,0 0.6831447,0.12376 1.03950868,0.25551 0.14254534,0.0498 0.28509195,0.10216 0.43167161,0.14792 -0.0403431,-0.003 -0.0793394,-0.0102 -0.12102942,-0.0102 -0.47806686,0.0102 -0.93797866,0.18693 -1.1739854,0.43504 -0.52647862,-0.008 -0.91175497,0.14859 -1.15045167,0.45923 -0.1035453,0.13448 -0.1647347,0.28308 -0.199027,0.42764 -0.080686,-0.2145 -0.1371667,-0.42966 -0.1371667,-0.63137 0,-0.61994 0.5621153,-1.08389 1.3104799,-1.08389"
             style="fill:#ffffff;stroke-width:0.67238563" />
          <path
             inkscape:connector-curvature="0"
             id="path301-8"
             d="m 3.8484231,152.46002 c 0.1418744,0 0.2548352,-0.11436 0.2548352,-0.25685 0,-0.14188 -0.1129608,-0.25819 -0.2548352,-0.25819 -0.1445619,0 -0.2575227,0.11563 -0.2575227,0.25819 0,0.14254 0.1136342,0.25685 0.2575227,0.25685"
             style="fill:#ffffff;stroke-width:0.67238563" />
          <path
             inkscape:connector-curvature="0"
             id="path303-5"
             d="m 4.6929403,152.18232 c 0.1405288,0 0.2575239,-0.11626 0.2575239,-0.25885 0,-0.14189 -0.1170014,-0.25687 -0.2575239,-0.25687 -0.1425466,0 -0.2581961,0.11436 -0.2581961,0.25687 6.722e-4,0.14254 0.1156546,0.25885 0.2581961,0.25885"
             style="fill:#ffffff;stroke-width:0.67238563" />
          <path
             inkscape:connector-curvature="0"
             id="path305-6"
             d="m 5.5683865,151.99002 c 0.1398553,0 0.2555061,-0.11563 0.2555061,-0.25752 0,-0.14322 -0.1156546,-0.25752 -0.2555061,-0.25752 -0.1459075,0 -0.2588683,0.11436 -0.2588683,0.25752 0,0.14188 0.1129608,0.25752 0.2588683,0.25752"
             style="fill:#ffffff;stroke-width:0.67238563" />
          <path
             inkscape:connector-curvature="0"
             id="path307-1"
             d="m 6.4532456,152.11375 c 0.1418732,0 0.2568517,-0.1164 0.2568517,-0.25753 0,-0.14321 -0.1149811,-0.25954 -0.2568517,-0.25954 -0.1445631,0 -0.2575239,0.11626 -0.2575239,0.25954 0,0.14187 0.1136342,0.25753 0.2575239,0.25753"
             style="fill:#ffffff;stroke-width:0.67238563" />
          <path
             inkscape:connector-curvature="0"
             id="path309-1"
             d="m 7.2197653,152.59584 c 0.1452353,0 0.2588682,-0.11563 0.2588682,-0.25819 0,-0.14255 -0.1129608,-0.25887 -0.2588682,-0.25887 -0.1405289,0 -0.2561783,0.11639 -0.2561783,0.25887 0,0.14255 0.1156545,0.25819 0.2561783,0.25819"
             style="fill:#ffffff;stroke-width:0.67238563" />
          <path
             inkscape:connector-curvature="0"
             id="path311-5"
             d="m 7.6675741,153.37783 c 0.1405288,0 0.2588683,-0.1136 0.2588683,-0.25955 0,-0.14119 -0.1183356,-0.2555 -0.2588683,-0.2555 -0.1438909,0 -0.2602126,0.1136 -0.2602126,0.2555 0,0.14591 0.116328,0.25955 0.2602126,0.25955"
             style="fill:#ffffff;stroke-width:0.67238563" />
          <path
             inkscape:connector-curvature="0"
             id="path313-9"
             d="m 7.657489,153.76983 c -0.1425466,0 -0.257524,0.11563 -0.257524,0.25887 0,0.14255 0.1149812,0.2582 0.257524,0.2582 0.1418731,0 0.2581961,-0.11563 0.2581961,-0.2582 6.722e-4,-0.14255 -0.116328,-0.25887 -0.2581961,-0.25887"
             style="fill:#ffffff;stroke-width:0.67238563" />
          <path
             inkscape:connector-curvature="0"
             id="path315-8"
             d="m 7.3387782,154.60897 c -0.1432188,0 -0.2588696,0.11627 -0.2588696,0.25752 0,0.14255 0.1156546,0.2582 0.2588696,0.2582 0.1405275,0 0.2588682,-0.11563 0.2588682,-0.2582 0,-0.14053 -0.1183356,-0.25752 -0.2588682,-0.25752"
             style="fill:#ffffff;stroke-width:0.67238563" />
          <polygon
             transform="matrix(0.67238567,0,0,0.67238567,-13.186467,129.32122)"
             id="polygon317-4"
             points="23.464,37.092 23.47,37.092 23.468,37.092 "
             style="fill:#ffffff" />
        </g>
      </g>
      <g
         transform="translate(-0.96660146)"
         id="g1296">
        <path
           inkscape:connector-curvature="0"
           id="path1396"
           style="font-style:normal;font-variant:normal;font-weight:500;font-stretch:normal;font-size:5.74158669px;line-height:1.25;font-family:'Keep Calm';-inkscape-font-specification:'Keep Calm Medium';letter-spacing:0.59808195px;word-spacing:0px;fill:#ffffff;fill-opacity:1;stroke:none;stroke-width:0.23923276"
           d="M -0.26136262,165.26318 H -1.4211631 l -1.8373078,-2.03252 v 2.03252 h -0.8899459 v -4.59327 h 0.8899459 v 2.04975 l 1.8774989,-2.04975 h 1.05645193 l -2.07271283,2.25645 z" />
        <path
           inkscape:connector-curvature="0"
           id="path1398"
           style="font-style:normal;font-variant:normal;font-weight:500;font-stretch:normal;font-size:5.74158669px;line-height:1.25;font-family:'Keep Calm';-inkscape-font-specification:'Keep Calm Medium';letter-spacing:0.59808195px;word-spacing:0px;fill:#ffffff;fill-opacity:1;stroke:none;stroke-width:0.23923276"
           d="M 3.7701868,165.26318 H 0.73862906 v -4.58752 H 3.7701868 v 0.73492 H 1.6113502 v 1.09664 h 2.1301287 v 0.7177 H 1.6113502 v 1.26315 h 2.1588366 z" />
        <path
           inkscape:connector-curvature="0"
           id="path1400"
           style="font-style:normal;font-variant:normal;font-weight:500;font-stretch:normal;font-size:5.74158669px;line-height:1.25;font-family:'Keep Calm';-inkscape-font-specification:'Keep Calm Medium';letter-spacing:0.59808195px;word-spacing:0px;fill:#ffffff;fill-opacity:1;stroke:none;stroke-width:0.23923276"
           d="M 8.0888104,165.26318 H 5.0572526 v -4.58752 h 3.0315578 v 0.73492 H 5.9299738 v 1.09664 h 2.1301286 v 0.7177 H 5.9299738 v 1.26315 h 2.1588366 z" />
        <path
           inkscape:connector-curvature="0"
           id="path1402"
           style="font-style:normal;font-variant:normal;font-weight:500;font-stretch:normal;font-size:5.74158669px;line-height:1.25;font-family:'Keep Calm';-inkscape-font-specification:'Keep Calm Medium';letter-spacing:0.59808195px;word-spacing:0px;fill:#ffffff;fill-opacity:1;stroke:none;stroke-width:0.23923276"
           d="m 12.591164,162.2144 q 0,0.32727 -0.126315,0.61435 -0.120573,0.28134 -0.333012,0.49378 -0.212439,0.20669 -0.499518,0.32727 -0.28708,0.11483 -0.608608,0.11483 h -0.75789 v 1.49855 H 9.3758752 v -4.58752 h 1.6478358 q 0.321528,0 0.608608,0.12057 0.287079,0.11483 0.499518,0.32153 0.212439,0.2067 0.333012,0.48803 0.126315,0.28134 0.126315,0.60861 z m -0.884205,-0.0115 q 0,-0.17799 -0.0689,-0.33301 -0.06316,-0.15503 -0.177989,-0.26986 -0.114832,-0.11483 -0.269854,-0.18373 -0.155023,-0.0689 -0.333012,-0.0689 H 10.26582 v 1.73396 h 0.591384 q 0.177989,0 0.333012,-0.0689 0.155022,-0.0746 0.269854,-0.19521 0.114832,-0.12058 0.177989,-0.2756 0.0689,-0.16076 0.0689,-0.33875 z" />
        <path
           inkscape:connector-curvature="0"
           id="path1405"
           style="font-style:normal;font-variant:normal;font-weight:500;font-stretch:normal;font-size:5.74158669px;line-height:1.25;font-family:'Keep Calm';-inkscape-font-specification:'Keep Calm Medium';letter-spacing:0.59808195px;word-spacing:0px;fill:#ffffff;fill-opacity:1;stroke:none;stroke-width:0.23923276"
           d="m -5.6995981,171.76779 h -0.8727212 v -3.06601 l -1.4468798,2.44018 -1.389464,-2.46314 v 3.08897 h -0.8727209 v -4.59327 h 1.0047774 l 1.2746322,2.27941 1.3320481,-2.27941 h 0.9703282 z" />
        <path
           inkscape:connector-curvature="0"
           id="path1407"
           style="font-style:normal;font-variant:normal;font-weight:500;font-stretch:normal;font-size:5.74158669px;line-height:1.25;font-family:'Keep Calm';-inkscape-font-specification:'Keep Calm Medium';letter-spacing:0.59808195px;word-spacing:0px;fill:#ffffff;fill-opacity:1;stroke:none;stroke-width:0.23923276"
           d="m 0.46208097,169.47116 q 0,0.49377 -0.19521395,0.93013 -0.18947236,0.43636 -0.52248439,0.75789 -0.33301203,0.32153 -0.77511423,0.511 -0.4421021,0.18374 -0.9416202,0.18374 -0.499518,0 -0.9473618,-0.18374 -0.4421022,-0.18947 -0.7751142,-0.511 -0.333012,-0.32153 -0.528226,-0.75214 -0.1894723,-0.43636 -0.1894723,-0.93588 0,-0.49952 0.1894723,-0.93588 0.195214,-0.43636 0.528226,-0.75789 0.333012,-0.32153 0.7751142,-0.50526 0.4478438,-0.18373 0.9473618,-0.18373 0.4995181,0 0.9416202,0.18373 0.4421022,0.18373 0.77511423,0.511 0.33301203,0.32153 0.52248439,0.75789 0.19521395,0.43062 0.19521395,0.93014 z m -0.89568753,0 q 0,-0.31579 -0.12057332,-0.59139 -0.12057332,-0.28133 -0.33301203,-0.48803 -0.20669709,-0.21244 -0.48803489,-0.33301 -0.2813377,-0.12632 -0.597125,-0.12632 -0.3215288,0 -0.6028666,0.12632 -0.2813377,0.12057 -0.4937764,0.33301 -0.2066972,0.2067 -0.3272705,0.48803 -0.1205733,0.2756 -0.1205733,0.59139 0,0.31004 0.1205733,0.59138 0.1205733,0.28134 0.3272705,0.49378 0.2124387,0.20669 0.4937764,0.33301 0.2813378,0.12057 0.6028666,0.12057 0.3157873,0 0.597125,-0.12057 0.2813378,-0.12632 0.48803489,-0.33301 0.21243871,-0.21244 0.33301203,-0.49378 0.12057332,-0.28134 0.12057332,-0.59138 z" />
        <path
           inkscape:connector-curvature="0"
           id="path1409"
           style="font-style:normal;font-variant:normal;font-weight:500;font-stretch:normal;font-size:5.74158669px;line-height:1.25;font-family:'Keep Calm';-inkscape-font-specification:'Keep Calm Medium';letter-spacing:0.59808195px;word-spacing:0px;fill:#ffffff;fill-opacity:1;stroke:none;stroke-width:0.23923276"
           d="m 5.8314167,169.47116 q 0,0.47655 -0.1607644,0.89568 -0.1607645,0.4134 -0.4478438,0.72919 -0.2870793,0.31004 -0.6889904,0.49377 -0.3961695,0.17799 -0.8669796,0.17799 H 1.7491486 v -4.59327 h 1.9176899 q 0.4708101,0 0.8669796,0.18373 0.4019111,0.18373 0.6889904,0.49378 0.2870793,0.31005 0.4478438,0.72918 0.1607644,0.41914 0.1607644,0.88995 z m -0.9014291,-0.023 q 0.00574,-0.32153 -0.097607,-0.60861 Q 4.729032,168.5525 4.5338181,168.34006 4.3386042,168.12188 4.0515248,168.00131 3.7701871,167.875 3.4142087,167.875 H 2.6390945 v 3.1349 h 0.7751142 q 0.3502368,0 0.6258329,-0.11483 0.2813378,-0.12057 0.4765517,-0.32727 0.195214,-0.21244 0.2985625,-0.49378 0.1090902,-0.28708 0.1148318,-0.62583 z" />
        <path
           inkscape:connector-curvature="0"
           id="path1411"
           style="font-style:normal;font-variant:normal;font-weight:500;font-stretch:normal;font-size:5.74158669px;line-height:1.25;font-family:'Keep Calm';-inkscape-font-specification:'Keep Calm Medium';letter-spacing:0.59808195px;word-spacing:0px;fill:#ffffff;fill-opacity:1;stroke:none;stroke-width:0.23923276"
           d="M 10.150043,171.76779 H 7.1184856 v -4.58753 h 3.0315574 v 0.73493 H 7.9912068 v 1.09664 h 2.1301282 v 0.7177 H 7.9912068 v 1.26315 h 2.1588362 z" />
        <path
           inkscape:connector-curvature="0"
           id="path1413"
           style="font-style:normal;font-variant:normal;font-weight:500;font-stretch:normal;font-size:5.74158669px;line-height:1.25;font-family:'Keep Calm';-inkscape-font-specification:'Keep Calm Medium';letter-spacing:0.59808195px;word-spacing:0px;fill:#ffffff;fill-opacity:1;stroke:none;stroke-width:0.23923276"
           d="m 14.543307,171.76779 h -3.106199 v -4.58753 h 0.907171 v 3.72629 h 2.199028 z" />
        <path
           inkscape:connector-curvature="0"
           id="path1415"
           style="font-style:normal;font-variant:normal;font-weight:500;font-stretch:normal;font-size:5.74158669px;line-height:1.25;font-family:'Keep Calm';-inkscape-font-specification:'Keep Calm Medium';letter-spacing:0.59808195px;word-spacing:0px;fill:#ffffff;fill-opacity:1;stroke:none;stroke-width:0.23923276"
           d="m 18.724131,170.56206 q 0,0.25837 -0.114831,0.49377 -0.10909,0.22967 -0.310046,0.40766 -0.200955,0.17799 -0.476552,0.28708 -0.275596,0.10335 -0.608608,0.10335 -0.298562,0 -0.539709,-0.0344 -0.235405,-0.0344 -0.447844,-0.10909 -0.206697,-0.0746 -0.401911,-0.18948 -0.189472,-0.12057 -0.396169,-0.28708 l 0.631574,-0.63731 q 0.275596,0.22966 0.539709,0.32727 0.264113,0.0919 0.574159,0.0919 0.126315,0 0.235405,-0.0344 0.114832,-0.0402 0.195214,-0.10334 0.08612,-0.0632 0.132057,-0.14929 0.05167,-0.0861 0.05167,-0.18947 0,-0.10909 -0.04019,-0.19521 -0.04019,-0.0861 -0.14354,-0.16651 -0.103349,-0.0804 -0.287079,-0.16076 -0.183731,-0.0861 -0.47081,-0.18947 -0.25263,-0.0919 -0.488035,-0.2067 -0.229664,-0.12057 -0.407653,-0.28708 -0.172248,-0.16651 -0.281338,-0.39043 -0.103348,-0.22392 -0.103348,-0.52822 0,-0.29283 0.114832,-0.53971 0.120573,-0.24689 0.321528,-0.41914 0.206697,-0.17799 0.476552,-0.2756 0.275596,-0.0976 0.591383,-0.0976 0.528226,0 0.889946,0.1378 0.36172,0.13779 0.643058,0.40191 l -0.620091,0.62583 q -0.172248,-0.16651 -0.384687,-0.25263 -0.212438,-0.0919 -0.499518,-0.0919 -0.132056,0 -0.246888,0.0402 -0.10909,0.0402 -0.189472,0.10909 -0.08038,0.0632 -0.132057,0.15502 -0.04593,0.0861 -0.04593,0.18373 0,0.10909 0.04593,0.20095 0.04593,0.0861 0.155023,0.17225 0.10909,0.0804 0.28708,0.16651 0.18373,0.0804 0.453585,0.17799 0.344495,0.12057 0.591383,0.26411 0.246889,0.14354 0.401911,0.31579 0.155023,0.17224 0.229664,0.39043 0.07464,0.21243 0.07464,0.48229 z" />
        <path
           inkscape:connector-curvature="0"
           id="path1380"
           style="font-style:normal;font-variant:normal;font-weight:500;font-stretch:normal;font-size:3.82772422px;line-height:1.25;font-family:'Keep Calm';-inkscape-font-specification:'Keep Calm Medium';letter-spacing:0.35884917px;word-spacing:0px;fill:#ffffff;fill-opacity:1;stroke:none;stroke-width:0.23923276"
           d="m 2.731435,173.73462 v 1.66123 q 0,0.30622 -0.091865,0.57033 -0.091865,0.26412 -0.2679407,0.46316 -0.1722476,0.19521 -0.4248774,0.31004 -0.2488021,0.11101 -0.5703309,0.11101 -0.3138734,0 -0.5665032,-0.11101 -0.2526298,-0.111 -0.43253284,-0.30239 -0.17607531,-0.19521 -0.27176842,-0.4555 -0.0956931,-0.26411 -0.0956931,-0.5665 v -1.68037 h 0.59329725 v 1.6842 q 0,0.17607 0.0497604,0.33301 0.0497604,0.15311 0.14545353,0.26794 0.0956931,0.11483 0.23731888,0.18373 0.1454535,0.0651 0.3291843,0.0651 0.1952139,0 0.3368397,-0.0612 0.1454536,-0.0651 0.2373189,-0.17608 0.095693,-0.11483 0.1416258,-0.26794 0.049761,-0.15311 0.049761,-0.33684 v -1.69185 z" />
        <path
           inkscape:connector-curvature="0"
           id="path1382"
           style="font-style:normal;font-variant:normal;font-weight:500;font-stretch:normal;font-size:3.82772422px;line-height:1.25;font-family:'Keep Calm';-inkscape-font-specification:'Keep Calm Medium';letter-spacing:0.35884917px;word-spacing:0px;fill:#ffffff;fill-opacity:1;stroke:none;stroke-width:0.23923276"
           d="m 5.6318907,175.99298 q 0,0.17224 -0.076554,0.32918 -0.072727,0.15311 -0.2066972,0.27177 -0.1339703,0.11866 -0.3177011,0.19139 -0.1837307,0.0689 -0.4057387,0.0689 -0.1990417,0 -0.3598061,-0.023 -0.1569367,-0.023 -0.2985625,-0.0727 -0.1377981,-0.0498 -0.2679407,-0.12631 -0.1263149,-0.0804 -0.264113,-0.19139 l 0.4210497,-0.42488 q 0.1837308,0.15311 0.3598061,0.21818 0.1760753,0.0613 0.3827724,0.0613 0.08421,0 0.1569367,-0.023 0.076554,-0.0268 0.1301426,-0.0689 0.057416,-0.0421 0.088038,-0.0995 0.03445,-0.0574 0.03445,-0.12631 0,-0.0727 -0.026794,-0.13015 -0.026794,-0.0574 -0.095693,-0.111 -0.068899,-0.0536 -0.1913862,-0.10718 -0.1224872,-0.0574 -0.3138734,-0.12631 -0.1684198,-0.0613 -0.3253565,-0.1378 -0.153109,-0.0804 -0.2717685,-0.19139 -0.1148317,-0.111 -0.1875584,-0.26028 -0.068899,-0.14928 -0.068899,-0.35215 0,-0.19522 0.076554,-0.35981 0.080382,-0.16459 0.2143526,-0.27942 0.137798,-0.11866 0.3177011,-0.18373 0.1837307,-0.0651 0.3942556,-0.0651 0.3521506,0 0.5932972,0.0919 0.2411466,0.0919 0.4287051,0.26794 l -0.4133942,0.41722 q -0.1148317,-0.111 -0.2564575,-0.16842 -0.1416258,-0.0612 -0.333012,-0.0612 -0.088038,0 -0.1645922,0.0268 -0.072727,0.0268 -0.1263149,0.0727 -0.053588,0.0421 -0.088038,0.10335 -0.030622,0.0574 -0.030622,0.12249 0,0.0727 0.030622,0.13397 0.030622,0.0574 0.1033485,0.11483 0.072727,0.0536 0.1913863,0.111 0.1224871,0.0536 0.3023902,0.11866 0.2296634,0.0804 0.3942556,0.17608 0.1645921,0.0957 0.2679407,0.21052 0.1033485,0.11483 0.1531089,0.26029 0.04976,0.14162 0.04976,0.32153 z" />
        <path
           inkscape:connector-curvature="0"
           id="path1384"
           style="font-style:normal;font-variant:normal;font-weight:500;font-stretch:normal;font-size:3.82772422px;line-height:1.25;font-family:'Keep Calm';-inkscape-font-specification:'Keep Calm Medium';letter-spacing:0.35884917px;word-spacing:0px;fill:#ffffff;fill-opacity:1;stroke:none;stroke-width:0.23923276"
           d="M 8.4328241,176.7968 H 6.4117858 v -3.05835 h 2.0210383 v 0.48995 H 6.9935998 v 0.73109 h 1.4200857 v 0.47847 H 6.9935998 v 0.8421 h 1.4392243 z" />
        <path
           inkscape:connector-curvature="0"
           id="path1387"
           style="font-style:normal;font-variant:normal;font-weight:500;font-stretch:normal;font-size:5.74158669px;line-height:1.25;font-family:'Keep Calm';-inkscape-font-specification:'Keep Calm Medium';letter-spacing:0.59808195px;word-spacing:0px;fill:#ffffff;fill-opacity:1;stroke:none;stroke-width:0.23923276"
           d="M -1.4096752,183.26697 H -4.441233 v -4.58753 h 3.0315578 v 0.73492 h -2.1588366 v 1.09665 h 2.1301287 v 0.71769 h -2.1301287 v 1.26315 h 2.1588366 z" />
        <path
           inkscape:connector-curvature="0"
           id="path1389"
           style="font-style:normal;font-variant:normal;font-weight:500;font-stretch:normal;font-size:5.74158669px;line-height:1.25;font-family:'Keep Calm';-inkscape-font-specification:'Keep Calm Medium';letter-spacing:0.59808195px;word-spacing:0px;fill:#ffffff;fill-opacity:1;stroke:none;stroke-width:0.23923276"
           d="M 2.9089479,179.44307 H 0.75011127 v 1.06794 H 2.8802399 v 0.72344 H 0.75011127 v 2.03252 H -0.1226099 v -4.58753 h 3.0315578 z" />
        <path
           inkscape:connector-curvature="0"
           id="path1391"
           style="font-style:normal;font-variant:normal;font-weight:500;font-stretch:normal;font-size:5.74158669px;line-height:1.25;font-family:'Keep Calm';-inkscape-font-specification:'Keep Calm Medium';letter-spacing:0.59808195px;word-spacing:0px;fill:#ffffff;fill-opacity:1;stroke:none;stroke-width:0.23923276"
           d="M 7.1873777,183.26697 H 4.0811793 v -4.58753 H 4.98835 v 3.72629 h 2.1990277 z" />
        <path
           inkscape:connector-curvature="0"
           id="path1393"
           style="font-style:normal;font-variant:normal;font-weight:500;font-stretch:normal;font-size:5.74158669px;line-height:1.25;font-family:'Keep Calm';-inkscape-font-specification:'Keep Calm Medium';letter-spacing:0.59808195px;word-spacing:0px;fill:#ffffff;fill-opacity:1;stroke:none;stroke-width:0.23923276"
           d="m 12.88398,183.26697 h -0.872721 v -3.06601 l -1.44688,2.44017 -1.3894635,-2.46314 v 3.08898 H 8.3021943 V 178.6737 H 9.306972 l 1.274632,2.27941 1.332048,-2.27941 h 0.970328 z" />
      </g>
    </g>
  </g>
</svg>
